<svg xmlns="http://www.w3.org/2000/svg" fill="none" viewBox="0 0 405 107" height="107" width="405">
  <rect fill="none" height="107" width="404.975"></rect>
  <path fill="#10B981" d="M53.5 65.2273C59.9768 65.2273 65.2273 59.9768 65.2273 53.5C65.2273 47.0232 59.9768 41.7727 53.5 41.7727C47.0232 41.7727 41.7727 47.0232 41.7727 53.5C41.7727 59.9768 47.0232 65.2273 53.5 65.2273ZM53.5 75C65.3741 75 75 65.3741 75 53.5C75 41.6259 65.3741 32 53.5 32C41.6259 32 32 41.6259 32 53.5C32 65.3741 41.6259 75 53.5 75Z" clip-rule="evenodd" fill-rule="evenodd"></path>
  <path fill="#0F1523" d="M336.059 68.9001L351.239 38.1001H357.839L372.975 68.9001H366.023L356.519 49.6721C356.225 49.0561 355.932 48.4694 355.639 47.9121C355.375 47.3548 355.125 46.8121 354.891 46.2841C354.656 45.7268 354.436 45.1694 354.231 44.6121C354.025 44.0548 353.82 43.4681 353.615 42.8521L355.199 42.8081C354.993 43.4534 354.773 44.0694 354.539 44.6561C354.304 45.2428 354.055 45.8148 353.791 46.3721C353.556 46.9294 353.307 47.4868 353.043 48.0441C352.779 48.6014 352.5 49.1881 352.207 49.8041L342.747 68.9001H336.059ZM350.733 62.8721L353.37 57.5481H363.603L364.527 62.8721H350.733Z"></path>
  <path fill="#0F1523" d="M307.301 68.9001V44.0401H295.245V38.1001H326.221V44.0401H313.901V68.9001H307.301Z"></path>
  <path fill="#0F1523" d="M244.518 48.3992V68.9001H250.986V57.8121C250.986 56.7106 250.957 55.6665 250.9 54.6796L244.518 48.3992Z"></path>
  <path fill="#0F1523" d="M244.518 41.3909L250.252 47.0337C250.252 47.0317 250.252 47.0297 250.252 47.0277L252.162 48.913L255.719 52.4137L255.714 52.4188L272.414 68.9001H278.838V38.1001H272.37V49.3201C272.399 50.2294 272.429 51.1681 272.458 52.1361C272.517 53.0748 272.575 54.0428 272.634 55.0401C272.693 56.0081 272.766 57.0054 272.854 58.0321C272.937 58.7411 273.028 59.4649 273.126 60.2035L250.854 38.1001H244.518V41.3909Z"></path>
  <path fill="#0F1523" d="M198.567 68.9001V38.1001H225.539V43.9081H204.991V63.0921H225.847V68.9001H198.567ZM202.087 56.0081V50.3761H223.427V56.0081H202.087Z"></path>
  <path fill="#0F1523" d="M174.604 68.9001L162.372 54.9961L147.104 38.1001H155.64L167.388 51.4321L183.184 68.9001H174.604ZM146.884 68.9001L161.536 52.1361L166.288 55.6121L155.156 68.9001H146.884ZM168.444 54.6001L163.78 51.2561L174.384 38.1001H182.7L168.444 54.6001Z"></path>
  <path fill="#0F1523" d="M99 68.9001L114.18 38.1001H120.78L135.916 68.9001H128.964L119.46 49.6721C119.167 49.0561 118.873 48.4694 118.58 47.9121C118.316 47.3548 118.067 46.8121 117.832 46.2841C117.597 45.7268 117.377 45.1694 117.172 44.6121C116.967 44.0548 116.761 43.4681 116.556 42.8521L118.14 42.8081C117.935 43.4534 117.715 44.0694 117.48 44.6561C117.245 45.2428 116.996 45.8148 116.732 46.3721C116.497 46.9294 116.248 47.4868 115.984 48.0441C115.72 48.6014 115.441 49.1881 115.148 49.8041L105.688 68.9001H99ZM113.674 62.8721L116.312 57.5481H126.544L127.468 62.8721H113.674Z"></path>
</svg>