<svg width="21" height="20" viewBox="0 0 21 20" fill="none" xmlns="http://www.w3.org/2000/svg">
<path d="M16.9782 5.90817C14.8296 2.78269 11.6367 1.7607 11.4459 1.70117C11.6166 1.79047 14.4179 3.57646 15.5525 6.64241C16.6871 9.69843 15.7131 12.8338 15.5826 13.201C15.3718 14.0543 15.673 15.0068 16.4863 15.4136C17.2493 15.8006 18.3739 15.2151 18.6851 13.9848C18.9361 13.449 19.1269 9.03365 16.9782 5.90817Z" fill="#478CFF"/>
<path d="M3.27291 7.24762C1.60618 10.6509 2.30902 13.8855 2.33914 14.084C2.3291 13.8855 2.49979 10.6013 4.61833 8.10092C6.73688 5.60054 9.96993 4.8663 10.3515 4.80677C11.2049 4.56864 11.8877 3.82447 11.8475 2.93148C11.8073 2.07817 10.733 1.41339 9.49802 1.76067C8.91567 1.80035 4.93963 3.84432 3.27291 7.24762Z" fill="#F44639"/>
<path d="M11.3053 18.3108C15.1207 18.033 17.6107 15.8204 17.7613 15.6914C17.5907 15.7906 14.6287 17.2988 11.3756 16.7332C8.1325 16.1676 5.86334 13.7665 5.62237 13.4688C4.97978 12.8636 3.99581 12.6354 3.23273 13.1315C2.50981 13.5879 2.46965 14.848 3.38333 15.7311C3.71467 16.2073 7.4899 18.5886 11.3053 18.3108Z" fill="#F44639"/>
</svg>
